<?xml version="1.0" standalone="no"?>
<!DOCTYPE svg PUBLIC "-//W3C//DTD SVG 20010904//EN"
 "http://www.w3.org/TR/2001/REC-SVG-20010904/DTD/svg10.dtd">
<svg version="1.0" xmlns="http://www.w3.org/2000/svg"
 width="70.000000pt" height="70.000000pt" viewBox="0 0 70.000000 70.000000"
 preserveAspectRatio="xMidYMid meet">
<metadata>
Created by potrace 1.14, written by Peter Selinger 2001-2017
</metadata>
<g transform="translate(0.000000,70.000000) scale(0.100000,-0.100000)"
fill="#000000" stroke="none">
<path d="M140 655 c0 -33 5 -47 16 -52 9 -3 19 0 24 6 6 10 12 10 29 -1 18
-11 23 -11 31 2 5 8 10 23 10 33 0 29 17 19 24 -14 7 -36 37 -37 46 -1 7 31
24 33 28 4 4 -28 27 -39 47 -22 10 8 19 9 28 3 6 -5 38 -10 69 -11 64 -2 85
13 50 36 -12 8 -22 25 -22 38 l0 24 -190 0 -190 0 0 -45z"/>
<path d="M112 558 c-6 -8 -7 -48 -2 -108 5 -52 13 -156 19 -230 7 -74 14 -142
17 -151 3 -10 30 -23 72 -34 37 -10 71 -22 77 -26 12 -12 91 -11 113 1 9 5 42
17 74 25 31 9 61 21 66 28 6 7 16 75 22 152 7 77 15 183 20 235 5 60 4 100 -2
108 -8 9 -68 12 -238 12 -170 0 -230 -3 -238 -12z m388 -128 l0 -29 -117 -3
-118 -3 0 -30 0 -30 113 -3 114 -3 -7 -87 c-4 -48 -9 -90 -11 -94 -3 -4 -29
-14 -59 -23 -51 -14 -60 -14 -113 1 -74 21 -84 30 -80 72 3 40 20 51 40 27 45
-55 49 -57 91 -51 23 4 47 12 54 18 15 12 18 64 4 72 -5 4 -50 9 -100 13 -102
7 -96 1 -107 105 l-6 67 68 4 c38 1 106 4 152 5 l82 2 0 -30z"/>
</g>
</svg>
